<?xml version="1.0" encoding="UTF-8"?>
<svg id="Capa_2" data-name="Capa 2" xmlns="http://www.w3.org/2000/svg" viewBox="0 0 965 183.37">
  <defs>
    <style>
      .cls-1 {
        fill: #fff;
      }
    </style>
  </defs>
  <g id="Capa_1" data-name="Capa 1">
    <g>
      <g>
        <g>
          <path class="cls-1" d="M861,132.35c-4.77,2.67-15.04,7.49-27.83,6.06-19.22-2.15-40.67-18.03-41.13-40.23-.47-22.55,21.04-36.05,22.12-36.71-2.7,3.76-4.84,7.94-6.28,12.44-.27.83-2.18,6.94-2.13,13.7.12,16.63,12.07,29.1,13.63,30.7,16.09,16.36,38.48,14.36,41.61,14.03Z"/>
          <path class="cls-1" d="M870.7,90.75c.16-1.83.24-3.69.24-5.56,0-36.38-29.48-65.87-65.86-65.87-7.19,0-14.11,1.15-20.59,3.28,11.47-8.84,25.85-14.11,41.45-14.11,24.94,0,46.73,13.44,58.54,33.46.32,2.58.48,5.22.48,7.89,0,15.46-5.33,29.67-14.24,40.9Z"/>
          <path class="cls-1" d="M897.58,77.76c0,21.9-12.46,40.9-30.67,50.29-2.24.27-4.51.41-6.82.41-14.56,0-27.85-5.52-37.89-14.57,3.67.74,7.45,1.14,11.34,1.14,31.23,0,56.55-25.32,56.55-56.55,0-3.58-.33-7.08-.97-10.49,5.36,8.64,8.46,18.84,8.46,29.77Z"/>
        </g>
        <g>
          <path class="cls-1" d="M861,132.35c-4.77,2.67-15.04,7.49-27.83,6.06-19.22-2.15-40.67-18.03-41.13-40.23-.47-22.55,21.04-36.05,22.12-36.71-2.7,3.76-4.84,7.94-6.28,12.44-.27.83-2.18,6.94-2.13,13.7.12,16.63,12.07,29.1,13.63,30.7,16.09,16.36,38.48,14.36,41.61,14.03Z"/>
          <path class="cls-1" d="M870.7,90.75c.16-1.83.24-3.69.24-5.56,0-36.38-29.48-65.87-65.86-65.87-7.19,0-14.11,1.15-20.59,3.28,11.47-8.84,25.85-14.11,41.45-14.11,24.94,0,46.73,13.44,58.54,33.46.32,2.58.48,5.22.48,7.89,0,15.46-5.33,29.67-14.24,40.9Z"/>
          <path class="cls-1" d="M897.58,77.76c0,21.9-12.46,40.9-30.67,50.29-2.24.27-4.51.41-6.82.41-14.56,0-27.85-5.52-37.89-14.57,3.67.74,7.45,1.14,11.34,1.14,31.23,0,56.55-25.32,56.55-56.55,0-3.58-.33-7.08-.97-10.49,5.36,8.64,8.46,18.84,8.46,29.77Z"/>
        </g>
      </g>
      <g>
        <path class="cls-1" d="M345.36,40.16c-7.15-4.28-15.07-6.42-23.75-6.42s-16.57,2.11-23.29,6.33c-6.72,4.22-11.62,9.93-14.67,17.14v-22.19h-16.87v148.34h16.87v-70.04c3.05,7.21,8.01,12.96,14.85,17.24,6.84,4.28,14.55,6.42,23.1,6.42s16.59-2.17,23.75-6.51c7.15-4.34,12.84-10.39,17.05-18.15,4.22-7.76,6.33-16.78,6.33-27.05s-2.11-19.28-6.33-27.05c-4.22-7.76-9.9-13.78-17.05-18.06ZM346.83,105.16c-3.12,5.56-7.24,9.81-12.38,12.74-5.13,2.93-10.76,4.4-16.87,4.4s-11.58-1.47-16.78-4.4c-5.2-2.93-9.35-7.18-12.47-12.74-3.12-5.56-4.68-12.19-4.68-19.9s1.56-14.45,4.68-19.89c3.12-5.44,7.27-9.63,12.47-12.56,5.19-2.93,10.79-4.4,16.78-4.4s11.74,1.47,16.87,4.4,9.26,7.12,12.38,12.56c3.12,5.44,4.68,12.07,4.68,19.89s-1.56,14.33-4.68,19.9Z"/>
        <path class="cls-1" d="M427.78,33.74c-7.95,0-14.79,2.08-20.54,6.23-5.75,4.16-9.78,9.96-12.1,17.42v-22.37h-16.87v100.67h16.87v-51.53c0-6.84,1.16-12.74,3.48-17.7,2.32-4.95,5.53-8.8,9.63-11.55,4.09-2.75,8.77-4.13,14.03-4.13.85,0,1.74.03,2.66.09.92.06,1.86.21,2.84.46v-17.6Z"/>
        <path class="cls-1" d="M506.72,113.32c-3.48,2.69-7.46,4.89-11.92,6.6-4.46,1.71-9.14,2.57-14.03,2.57-6.36,0-12.1-1.16-17.24-3.48-5.13-2.32-9.29-5.5-12.47-9.54-3.18-4.03-5.13-8.43-5.87-13.2,1.1.12,2.63.28,4.58.46,1.95.18,4.09.34,6.42.46,2.32.12,4.46.18,6.42.18,7.09.25,14.15-.09,21.18-1.01,7.03-.92,13.48-2.57,19.34-4.95s10.57-5.68,14.12-9.9c3.54-4.22,5.32-9.5,5.32-15.86,0-4.52-1.01-8.68-3.03-12.47-2.02-3.79-4.89-7.15-8.62-10.08-3.73-2.93-8.16-5.23-13.29-6.88-5.13-1.65-10.82-2.48-17.05-2.48-6.97,0-13.66,1.28-20.08,3.85-6.42,2.57-12.1,6.21-17.05,10.91-4.95,4.71-8.86,10.24-11.74,16.59-2.87,6.36-4.31,13.33-4.31,20.9s1.28,14.67,3.85,20.9,6.23,11.58,11,16.04c4.77,4.46,10.42,7.92,16.96,10.36,6.54,2.44,13.72,3.67,21.55,3.67,6.84,0,13.2-.98,19.07-2.93s11.19-4.64,15.95-8.07c4.77-3.42,8.74-7.33,11.92-11.74l-12.47-9.17c-2.2,2.81-5.04,5.56-8.53,8.25ZM449.51,65.83c3.24-5.25,7.64-9.5,13.2-12.74,5.56-3.24,11.83-4.86,18.79-4.86,4.64,0,8.83.76,12.56,2.29,3.73,1.53,6.66,3.61,8.8,6.23,2.14,2.63,3.21,5.66,3.21,9.08s-1.31,6.3-3.94,8.62c-2.63,2.32-6.08,4.13-10.36,5.41-4.28,1.28-8.92,2.2-13.94,2.75-5.01.55-9.96.83-14.85.83-3.91,0-7.49-.09-10.73-.28-3.24-.18-5.96-.4-8.16-.64.37-5.87,2.17-11.43,5.41-16.69Z"/>
        <polygon class="cls-1" points="604.18 34.66 575.57 116.99 546.97 34.66 524.6 34.66 562.92 135.69 587.86 135.69 626.37 34.66 604.18 34.66"/>
        <path class="cls-1" d="M706.86,56.48c-2.81-7.21-7.33-12.86-13.57-16.96-6.23-4.09-13.51-6.14-21.82-6.14-8.8,0-16.78,2.14-23.93,6.42-7.15,4.28-12.83,10.3-17.05,18.06-4.22,7.76-6.33,16.84-6.33,27.23s2.11,19.47,6.33,27.23c4.22,7.76,9.9,13.82,17.05,18.15,7.15,4.34,15.13,6.51,23.93,6.51,8.31,0,15.59-2.08,21.82-6.23,6.23-4.15,10.75-9.84,13.57-17.05v10.27c0,3.42,1.1,6.23,3.3,8.43s5.01,3.3,8.43,3.3h9.35V34.66h-21.09v21.82ZM702.46,103.51c-2.93,5.07-6.72,8.89-11.37,11.46-4.65,2.57-9.6,3.85-14.85,3.85s-10.06-1.28-14.76-3.85c-4.71-2.57-8.53-6.39-11.46-11.46-2.93-5.07-4.4-11.21-4.4-18.43s1.47-13.48,4.4-18.43,6.75-8.71,11.46-11.28c4.71-2.57,9.63-3.85,14.76-3.85s10.21,1.28,14.85,3.85c4.64,2.57,8.43,6.33,11.37,11.28s4.4,11.09,4.4,18.43-1.47,13.36-4.4,18.43Z"/>
        <path class="cls-1" d="M773.42,119.19c-2.2,0-4.1-.73-5.68-2.2-1.59-1.47-2.38-3.54-2.38-6.23V0h-20.9v112.59c0,5.75,1.22,10.42,3.67,14.03,2.44,3.61,5.56,6.23,9.35,7.88,3.79,1.65,7.64,2.47,11.55,2.47,4.89,0,9.11-1.04,12.65-3.12l-4.4-15.4c-1.1.49-2.38.73-3.85.73Z"/>
        <path class="cls-1" d="M946.02,39.7c-5.56,4.22-9.57,9.93-12.01,17.14v-22.19h-20.9v101.03h20.9v-50.98c0-6.72,1.07-12.31,3.21-16.78,2.14-4.46,5.1-7.82,8.89-10.09,3.79-2.26,8.19-3.39,13.2-3.39.98,0,1.93.03,2.84.09.92.06,1.86.21,2.84.46v-21.64c-7.09,0-13.42,2.11-18.98,6.33Z"/>
        <path class="cls-1" d="M24.55,34.66c-3.84-1.67-7.75-2.51-11.72-2.51-4.96,0-9.23,1.05-12.83,3.16l4.46,15.62c1.12-.5,2.42-.74,3.91-.74,2.23,0,4.15.74,5.76,2.23,1.61,1.49,2.42,3.59,2.42,6.32v76.72h21.2V56.88c0-5.83-1.24-10.57-3.72-14.23-2.48-3.66-5.64-6.32-9.48-8Z"/>
        <path class="cls-1" d="M122.41,38.66c-7.87-4.34-16.71-6.51-26.5-6.51s-18.47,2.17-26.41,6.51c-7.94,4.34-14.23,10.41-18.88,18.22s-6.97,17.05-6.97,27.71,2.26,19.78,6.79,27.71c4.52,7.94,10.66,14.07,18.41,18.41,7.75,4.34,16.46,6.51,26.13,6.51s18.72-2.17,26.78-6.51c8.06-4.34,14.47-10.47,19.25-18.41,4.77-7.93,7.16-17.17,7.16-27.71s-2.32-19.9-6.97-27.71c-4.65-7.81-10.91-13.88-18.78-18.22ZM121.85,103.56c-3.04,5.09-6.94,8.9-11.72,11.44-4.77,2.54-9.83,3.81-15.16,3.81s-10.26-1.27-14.78-3.81c-4.53-2.54-8.15-6.35-10.88-11.44-2.73-5.08-4.09-11.4-4.09-18.97s1.42-14.04,4.28-19.06c2.85-5.02,6.57-8.77,11.16-11.25,4.58-2.48,9.54-3.72,14.88-3.72s10.32,1.24,14.97,3.72c4.65,2.48,8.46,6.23,11.44,11.25,2.98,5.02,4.46,11.38,4.46,19.06s-1.52,13.89-4.56,18.97Z"/>
        <path class="cls-1" d="M231.75,38.66c-7.87-4.34-16.71-6.51-26.5-6.51s-18.47,2.17-26.41,6.51c-7.94,4.34-14.23,10.41-18.87,18.22-4.65,7.81-6.97,17.05-6.97,27.71s2.26,19.78,6.79,27.71c4.52,7.94,10.66,14.07,18.41,18.41,7.75,4.34,16.46,6.51,26.13,6.51s18.72-2.17,26.78-6.51c8.06-4.34,14.47-10.47,19.25-18.41,4.77-7.93,7.16-17.17,7.16-27.71s-2.32-19.9-6.97-27.71c-4.65-7.81-10.91-13.88-18.78-18.22ZM231.19,103.56c-3.04,5.09-6.94,8.9-11.72,11.44-4.77,2.54-9.83,3.81-15.16,3.81s-10.26-1.27-14.78-3.81c-4.53-2.54-8.15-6.35-10.88-11.44-2.73-5.08-4.09-11.4-4.09-18.97s1.42-14.04,4.28-19.06c2.85-5.02,6.57-8.77,11.16-11.25,4.58-2.48,9.54-3.72,14.88-3.72s10.32,1.24,14.97,3.72c4.65,2.48,8.46,6.23,11.44,11.25,2.98,5.02,4.46,11.38,4.46,19.06s-1.52,13.89-4.56,18.97Z"/>
      </g>
    </g>
  </g>
</svg>